<?xml version="1.0" encoding="UTF-8" standalone="no"?>
<!-- Created with Inkscape (http://www.inkscape.org/) -->

<svg
   width="512"
   height="512"
   viewBox="0 0 135.46666 135.46667"
   version="1.1"
   id="svg5"
   sodipodi:docname="proxmark3.svg"
   inkscape:version="1.2.2 (b0a8486541, 2022-12-01)"
   xmlns:inkscape="http://www.inkscape.org/namespaces/inkscape"
   xmlns:sodipodi="http://sodipodi.sourceforge.net/DTD/sodipodi-0.dtd"
   xmlns="http://www.w3.org/2000/svg"
   xmlns:svg="http://www.w3.org/2000/svg">
  <sodipodi:namedview
     id="namedview8"
     pagecolor="#ffffff"
     bordercolor="#666666"
     borderopacity="1.0"
     inkscape:showpageshadow="2"
     inkscape:pageopacity="0.0"
     inkscape:pagecheckerboard="0"
     inkscape:deskcolor="#d1d1d1"
     showgrid="false"
     inkscape:zoom="0.4609375"
     inkscape:cx="253.83051"
     inkscape:cy="256"
     inkscape:window-width="1128"
     inkscape:window-height="683"
     inkscape:window-x="0"
     inkscape:window-y="0"
     inkscape:window-maximized="1"
     inkscape:current-layer="svg5" />
  <defs
     id="defs2">
    <rect
       x="39.903419"
       y="78.871417"
       width="834.34852"
       height="724.4898"
       id="rect236" />
  </defs>
  <rect
     style="fill:#ffffff;fill-opacity:1;stroke-width:0.264999"
     id="rect237"
     width="135.46666"
     height="135.46666"
     x="0"
     y="0" />
  <g
     id="layer1"
     transform="translate(-0.44228819,0.04792456)">
    <g
       aria-label="PM3"
       transform="matrix(0.26458333,0,0,0.26458333,-6.7419412,11.951908)"
       id="text234"
       style="font-size:233.333px;line-height:1.25;-inkscape-font-specification:sans-serif;word-spacing:0px;white-space:pre;shape-inside:url(#rect236)">
      <path
         d="m 106.63753,124.57524 q 32.66662,0 47.59993,12.83331 14.93331,12.83332 14.93331,36.16661 0,10.26666 -3.49999,19.83331 -3.26666,9.33332 -10.96665,16.79997 -7.69999,7.46666 -20.5333,11.89999 -12.83332,4.19999 -31.49996,4.19999 H 83.537566 v 64.86657 H 62.537597 V 124.57524 Z m -1.86666,17.96664 H 83.537566 v 65.7999 h 16.799974 q 15.86665,0 26.36663,-3.26666 10.49998,-3.5 15.63331,-10.96665 5.13333,-7.46666 5.13333,-19.59997 0,-16.09998 -10.26666,-24.0333 -10.26665,-7.93332 -32.43328,-7.93332 z"
         id="path237" />
      <path
         d="M 277.20384,291.17499 222.37059,145.10854 h -0.93333 q 0.46666,4.66666 0.69999,11.89998 0.46667,7.23333 0.7,15.86665 0.23334,8.39998 0.23334,17.26664 V 291.17499 H 203.70395 V 124.57524 h 31.03329 l 51.33325,136.4998 h 0.93334 l 52.26659,-136.4998 h 30.79995 V 291.17499 H 349.30374 V 188.74181 q 0,-8.16666 0.23333,-16.09998 0.23333,-8.16665 0.7,-15.16664 0.46666,-7.23332 0.7,-12.13332 h -0.93334 l -55.53325,145.83312 z"
         id="path239" />
      <path
         d="m 507.73675,163.54185 q 0,11.19998 -4.2,19.36663 -4.19999,8.16666 -12.13331,13.29999 -7.69999,5.13332 -18.19997,7.23332 v 0.93333 q 20.06663,2.33333 29.86662,12.59998 9.79998,10.26665 9.79998,26.8333 0,14.46664 -6.76665,25.89996 -6.76666,11.19998 -20.99997,17.49997 -13.99998,6.29999 -36.16662,6.29999 -13.06664,0 -24.26663,-2.09999 -11.19998,-1.86667 -21.46663,-6.99999 v -19.13331 q 10.49998,5.13333 22.6333,8.16666 12.13331,2.79999 23.3333,2.79999 22.39996,0 32.19995,-8.63332 10.03332,-8.86665 10.03332,-24.26663 0,-10.49998 -5.59999,-16.79998 -5.36666,-6.53332 -15.86665,-9.56665 -10.49998,-3.03333 -25.19996,-3.03333 H 428.63686 V 196.4418 h 16.33331 q 13.76665,0 22.86664,-3.96666 9.33332,-3.96666 13.99998,-10.96665 4.89999,-7.23333 4.89999,-16.56665 0,-12.13331 -8.16666,-18.66664 -8.16665,-6.76665 -22.16663,-6.76665 -8.86665,0 -16.09998,1.86666 -7.23332,1.63333 -13.53331,4.89999 -6.06666,3.03333 -12.36665,7.23333 L 404.1369,139.50855 q 8.86665,-6.99999 21.9333,-12.13332 13.29998,-5.13332 30.09996,-5.13332 26.13329,0 38.73327,11.66665 12.83332,11.66665 12.83332,29.63329 z"
         id="path241" />
    </g>
  </g>
</svg>
